<?xml version="1.0" encoding="UTF-8"?>
<!DOCTYPE svg PUBLIC "-//W3C//DTD SVG 1.1//EN" "http://www.w3.org/Graphics/SVG/1.1/DTD/svg11.dtd">
<!-- Creator: CorelDRAW -->
<svg xmlns="http://www.w3.org/2000/svg" xml:space="preserve" width="210mm" height="297mm" version="1.1" style="shape-rendering:geometricPrecision; text-rendering:geometricPrecision; image-rendering:optimizeQuality; fill-rule:evenodd; clip-rule:evenodd"
viewBox="0 0 21000 29700"
 xmlns:xlink="http://www.w3.org/1999/xlink"
 xmlns:xodm="http://www.corel.com/coreldraw/odm/2003">
 <defs>
  <style type="text/css">
   <![CDATA[
    .fil1 {fill:#FEFEFE}
    .fil0 {fill:black}
   ]]>
  </style>
 </defs>
 <g id="Layer_x0020_1">
  <metadata id="CorelCorpID_0Corel-Layer"/>
  <g id="_2836961001072">
   <rect class="fil0" x="2389.33" y="7096.72" width="16232.21" height="16618.86"/>
   <path class="fil1" d="M10473.23 23483.1c-24.22,-153.1 193.71,-179.12 223.41,-52.41 39.28,167.66 -204.03,174.9 -223.41,52.41zm230.98 -754.13c-115.92,174.65 -357.93,-7.85 -237.68,-177.99 92.39,-130.72 366.67,-16.29 237.68,177.99zm607.55 -98.56c82.08,22.95 287.35,198.93 477.64,292.38 282.87,138.92 299.68,120.92 610.92,88.55 -191.89,266.88 -920.89,-8.32 -1088.56,-380.93zm-2530.71 388.81c610.32,58.78 712.23,-219.88 1083.15,-406.25 -47.33,147.53 -266.32,323.11 -411.83,401.04 -140.48,75.24 -545.69,191.08 -671.32,5.21zm2382.02 -487.46c127.14,104.93 246.68,419.53 192.45,642.09 -46.26,189.95 -262.12,425.67 -491.59,352.8 578.23,-222.83 331.48,-666 299.14,-994.89zm-802.77 1028.67c-282.51,30.44 -468.46,-132.43 -535.05,-334.62 -39.78,-120.76 -29.65,-267.46 9.11,-388.74 18.39,-57.52 40.56,-104.3 65.53,-154.44 16.53,-33.19 19.57,-43.22 42.94,-75.03 1.65,-2.27 27.71,-32.93 29.01,-34.22 26.72,-26.9 5.53,-9.89 37.82,-32.06 -32.43,218.71 -143.08,417.92 -62.89,664.45 95.49,293.53 323.36,274.05 413.53,354.66zm823.52 -1128.22c130.28,20.11 274.67,76.13 410.55,108.73 158.46,38 309.21,50.66 477.45,62.49 576.57,40.55 603.91,-117.54 827.36,-227.9 -179.92,595.54 -1483.81,387.05 -1715.36,56.68zm-2914.38 -74.82c108.44,87.99 140.54,139.11 333.62,197.12 592.74,178.12 1047.32,-74.09 1382.9,-122.56 -95.2,166.61 -620.83,327.02 -898.84,339.7 -373.21,17.04 -750.1,-139.53 -817.68,-414.26zm2475.33 -211.72c348.99,169.58 632.64,1316.41 21.93,1181.54 -176.03,-38.89 -178.27,-333.14 24.93,-389.47 -33.07,81.43 -68.72,91.67 -65.23,168.13 3.26,71.05 53.33,114.83 133.33,98 112.01,-23.56 130.66,-206.31 112.25,-345.61 -33.93,-256.54 -149.9,-494.02 -227.21,-712.59zm-379.25 1079.06c128.23,-129.71 59.65,-157.56 -12.44,-288.91 207.16,38.37 228.48,304.64 92.25,388.65 -84.46,52.08 -210.42,22.68 -278.83,-20.56 -64.9,-41 -104.62,-117.38 -121.17,-218.5 -63.05,-385.27 211.25,-811.06 395.09,-945.7 -25.05,118.18 -495.44,1039.13 -74.9,1085.02zm1803.2 -1230.01c-27.12,-161.78 229.24,-191.12 237.57,-39.28 9.07,165.01 -216.27,166.34 -237.57,39.28zm-3356.99 73.13c-83.16,-131.26 0.76,-272.46 139.66,-198.01 92.67,49.66 88.02,260.73 -139.66,198.01zm445.61 49.22l51.04 -261.32c44.12,24.12 34.23,16.48 76.27,61.74 18.13,19.5 19.19,25.71 36.63,42.87 39.54,38.86 10.46,15.8 44.85,35.62 40.94,-64.41 5.86,-51.54 59.96,-94.64 29.77,11.86 49.39,28.22 62.16,33.42 5.24,2.16 20.61,8.42 26.22,9.57 65.35,13.43 57.74,-63.41 171.45,42.33 73.49,-71.31 -47.28,-37.48 203.04,-47.68 91.02,-3.7 193.38,11.53 298.68,9.14 -49.1,55.95 -126.45,66.59 -205.51,85.11 -85.55,20.04 -160.95,33.61 -251.92,47.42 -204,30.91 -355.41,40.36 -572.87,36.42zm1607.84 -180.48c138.24,6.7 341.72,21.78 459.68,-25.45 104.34,50.25 -95.51,-70.88 32.32,27.72 34.6,26.7 -9.47,16.86 46.31,31.25 14.5,-9.94 38.36,-28.81 58.87,-33.45 80.9,-18.24 12.85,67.6 198.79,-54.19 24.01,71 10.01,80.51 63.45,128.23 33.81,-28.92 108.73,-138.1 132.27,-168.24l69.3 274.38c-253.83,6.4 -910.36,-43.08 -1060.99,-180.25zm1199.18 80.09c-178.18,-205.11 208.23,-568.79 524.71,-304.92 215.26,179.5 142.02,558.44 -162.48,702.99 -505.19,239.8 -1387.97,-167.76 -1658.36,-414.41 443.65,66.95 802.51,252.87 1316.98,234.28 569.01,-20.58 437.79,-556.47 119.89,-437.02 -91.45,34.38 -119.42,99.14 -131.7,171.76l-9.04 47.32zm-1638.62 -23.09c-107.43,188.88 -1160.21,688.39 -1690.07,409.51 -250.74,-131.96 -426.32,-480.46 -117.15,-714.03 346.67,-261.9 724.79,242.41 451.41,365.42 95.89,-265 -218.85,-341.02 -344.26,-199.89 -101.44,114.17 -2.25,350.16 339.9,378.59 507.03,42.12 985.21,-182.5 1360.17,-239.6zm3496 395.3c158.96,-177.01 300.17,-126.05 421.13,-712.1 25.23,-122.19 36.82,-302.88 62.63,-344.48 129.88,408.92 -87.63,1058.97 -483.76,1056.58zm-7143.63 -1061.01c36.52,319.8 111.75,884.92 442.78,1015.26 -6,4.85 9.51,96.15 -159.01,-3.37 -331.9,-196.03 -361.95,-687.17 -283.77,-1011.89zm1229.11 174.41c58.19,77.14 16.22,120.4 -20.63,171.13 -104.64,19.68 -206.88,-7.79 -182.38,-132.25 14.05,-71.39 91.73,-102.43 155.71,-78.26 73.79,27.87 25.28,11.77 47.3,39.38zm5187.96 177.29c-80.26,-121.58 -82.03,-106.46 1.48,-222.51 236.49,-26.25 251.74,233.78 -1.48,222.51zm2411.31 -345.02c26.3,61.41 23.16,120.97 -10.76,177.06 -270.64,85.95 -250.18,-255.98 10.76,-177.06zm-9867.74 190.6c-183.19,39.9 -260.12,-90.85 -161.92,-176.73 107.41,-93.96 231.77,5.63 161.92,176.73zm8710.11 -339.72c134.79,157.88 175.2,329.74 337.3,448.27 237.55,173.68 343.14,121.84 617.72,45.54 -94.23,194.92 -459.51,208.09 -645.9,81.85 -134.84,-91.32 -318.49,-346.9 -309.12,-575.66zm-8681.24 481.79c272.53,50.35 365.96,157.34 612.54,-37.48 186.21,-147.13 259.9,-354.52 317.38,-422.47 25.07,-29.65 7.87,-12.23 35.96,-34.69 -17.35,326.63 -268.5,708.36 -658.8,656.3 -117.39,-15.66 -256.99,-59.35 -307.08,-161.66zm7355.18 623.36c171.05,-110.8 403.05,91.34 1006.27,-765.89 83.52,-118.72 139.49,-265.22 231.81,-366.69 -40.6,542.57 -643.85,1351.9 -1238.08,1132.58zm-6312.02 -1151.28c89.68,95.98 148.81,251.17 224.82,371.56 133.57,211.56 356.85,490.41 570.51,624.04 245.76,153.74 393.09,106.2 466.88,162.67 -624.14,212.31 -1233.74,-599.41 -1262.21,-1158.27zm-718.68 -236.08c-51.79,-223.47 226.88,-253.33 276.21,-93.5 67.59,218.92 -241.13,244.82 -276.21,93.5zm8979.41 0c-79.15,182.19 -326.44,95.45 -263.68,-112.48 53.38,-176.8 346.35,-77.82 263.68,112.48zm-597.46 -270.04l165.73 352.57c52.01,106.86 125.73,222.46 192.68,304.66 44.11,54.19 184.38,231.09 317.85,158.82 67.72,-36.68 62.79,-113.63 22.85,-158.4 -40.53,-45.37 -118.43,-48.4 -185.4,-70.08 116.49,-101.49 392.73,10.92 324.3,228.37 -120.11,381.54 -848.52,81.03 -838.01,-815.94zm-8309.36 567.72c-64.66,38.63 -120.48,24.16 -163.21,73.57 -131.63,152.26 244.44,477.57 619.77,-497.54 13.6,-35.34 18.81,-56.49 30.38,-87.4l58.57 -90.57c27.26,342.87 -191.14,771.85 -365.8,916.14 -123.29,101.84 -368.68,125 -456.39,-15.92 -116.29,-186.81 95.86,-412.74 276.68,-298.28zm7292.35 274.75c-80.76,-60.26 -130.54,-170.07 -290.1,-71.98 -284.94,175.16 43.6,632.67 506.92,125.45 128.18,-140.31 252.37,-308.25 371.53,-484.87 78.94,-116.98 247.27,-470.63 316.98,-544.16 0.47,305.81 -143.81,634.29 -274,864.25 -543.26,959.55 -1270.84,682.76 -1224.62,214.89 35.88,-363.14 588.82,-440.87 593.29,-103.58zm168.92 -57.94c-32.43,-29.3 -136.75,-203.29 -153.08,-231.77l208.01 -0.89 -29.27 -120.08 142.2 -15.35 -5.95 -75.66 126.44 -17.93c-3.38,-48.05 -12.73,-47.07 -30.86,-87.29 120.32,-43.31 272.44,-233.94 354.75,-312.56 4.06,188.62 -470.27,730.83 -612.24,861.53zm-6679.35 -840.22l224.14 183.39c73.41,64.38 -5.62,47.13 130.11,102.66 -15.29,54.28 -19.42,46.24 -46.33,94.83l126.69 16.11 -9.16 74.7 138.68 12.89c-0.02,81.75 -21.6,73.55 -3.25,123.85l213.25 -4.59c-74.12,110.37 -49.71,20.46 -149.78,199.74 -25.3,45.34 -4.96,16.93 -23.51,37.51 -77.4,-73.79 -98.93,-89.14 -175.58,-182.01 -149.26,-180.83 -354.32,-438.22 -425.26,-659.08zm-135.62 -73.44c146.2,179.24 349.49,681.54 687.36,1023.73 90.06,91.22 367.21,369.28 569.47,169.56 125.84,-124.28 -66.69,-491.57 -350.29,-227.9 3.47,-305.18 526.41,-269.95 586.2,110.3 56.4,358.76 -355.57,522.84 -662.8,382.83 -354.11,-161.37 -803.47,-888.64 -829.94,-1458.52zm7888.49 -120.66c976.55,19.81 1155.56,717.4 852.77,831.43 -200.94,75.69 -308.3,-68.11 -270.76,-337.29 44.23,71.02 29.29,302.84 244.88,211.47 93.46,-382.17 -569.91,-559.23 -764.78,-660.21l-26.51 -15.38c-27.19,-18.11 -17.33,-10.47 -35.6,-30.02zm-8923.08 719.2l95.11 -203.24c79.74,219.98 -75.05,420.36 -287.34,307.81 -164.79,-87.34 -136.63,-318.07 -25.02,-452.85 130.24,-157.25 629.69,-441.64 940.25,-352.73 -99.76,58.38 -624.05,189.06 -836.88,475.41 -81.77,110.03 -77.5,240.39 113.88,225.6zm9503.43 -738.07c237.22,13.1 481.21,179.03 570.91,311.44 126.06,186.06 85.55,566.71 -105.59,643.12 79.34,-222.23 134.32,-402.94 -15.48,-602.41 -127.36,-169.56 -377.44,-259.61 -449.84,-352.15zm-9888.73 934.61c-337.84,-175.79 -125.89,-920.66 498.32,-933.79 -42.82,58.25 -152.02,109.77 -226.05,155.66 -380.5,235.89 -353.78,420.1 -272.27,778.13zm-701.85 -1447.69c125.26,120.73 131.27,220.77 427.91,329.95 215.14,79.18 385.95,93.83 628.46,135.2 -396.39,157.06 -1049.33,-90.59 -1056.37,-465.15zm10755.05 463.74c216.6,-24.75 427.05,-60.49 609.5,-133.77 168.76,-67.78 225.65,-109.08 336.26,-222.15 43.93,-44.89 56.3,-72.64 92.44,-106.32 2.11,213.55 -198.28,360.21 -372.05,424.97 -175.06,65.26 -506.15,147.97 -666.15,37.27zm-9773.89 -761.42l62.91 -36.73c46.62,-28.78 13.66,-4.19 55.75,-42.35 44.15,-40.03 93.55,-75.08 106.8,-86.47l7.22 222.09 112.01 -30.5c36.9,119.87 -15.82,63.64 56.49,133.14 62.77,60.35 25.11,-17.32 65.01,131.14l81.42 -35.63c45.2,145.82 228.22,236.22 309.3,357.54 -177.47,-56.98 -342.38,-172.7 -466.24,-267.16 -305.98,-233.38 -169.93,-127.83 -390.67,-345.07zm9599.82 -170.61c241.77,195.67 158.82,88.65 248.92,154.35 -107.43,131.07 -636.27,577.49 -871.95,609.53l251 -256.87c43.13,-38.91 36.14,-50.72 41.69,-104.82 55.85,31.41 55.21,46.41 113.04,57.22l107.76 -274.99 107.88 39.92 1.66 -224.34zm-52.46 902.57c75.21,-69.59 405.27,-226.96 717.93,-479.66 155.11,-125.35 318.75,-315.54 387.47,-508.04 30.38,-85.06 32.31,-197.4 58.23,-253.54 69.14,113.72 30.48,402.17 -30.43,517.46 -178.39,337.67 -710.84,704.98 -1133.2,723.78zm-10428.4 -1241.15c68.95,138.01 -53.99,465.88 776.23,1008.7 55.12,36.05 125.13,75.43 186.77,111.81 31.34,18.49 54.24,31.8 88.57,51.28l89.13 75.05c-290.61,-11.46 -704.87,-262.35 -841.76,-399.87 -111.33,-111.87 -201.33,-197.49 -270.81,-346.36 -57.76,-123.73 -113,-368.72 -28.13,-500.61zm635.16 47.75c182.59,-63.99 275.22,87.31 179.64,178.79 -94.64,90.59 -247.91,8.84 -179.64,-178.79zm10117.9 104.23c-21.13,-149.94 221.98,-183.34 226.14,-20.51 4.58,178.94 -207.19,154.91 -226.14,20.51zm3.94 178.44c-337.68,-18.12 -199.57,-595.96 173.69,-588.25 364.31,7.53 763.55,632.41 -279.75,1221.95 -122.35,69.12 -702.59,318.38 -855.93,259.5l125.73 -71.19c237.42,-97.83 714.36,-436.04 889.61,-585.98 80.87,-69.19 388.6,-351.25 210.68,-562.6 -126.98,-150.83 -521.93,27.04 -264.03,326.57zm-8985.48 907c-396.63,32.23 -1280.62,-441.94 -1440,-819.1 -129.18,-305.62 34.84,-677.39 348.04,-677.95 380.86,-0.71 486.94,610.07 137.65,592.19 79.36,-84.69 161.77,-126.39 66.31,-284.06 -187.29,-309.37 -871.75,106.46 362.27,870.92 165.1,102.27 387.07,205.54 525.73,318zm9580.68 -2157.19c98.55,132.38 -6.38,258.09 -185.07,165.97 -33.81,-148.79 33.14,-237.86 185.07,-165.97zm-10926.12 166.86c-69.57,25.9 -113.68,31.22 -201.19,7.1 -97.87,-266.19 264.64,-267.06 201.19,-7.1zm11505.64 -1037.27c360.86,123.43 666.3,889.42 384.23,1087.67 66.97,-414.15 -52.69,-619.43 -307.98,-967.83 -42.33,-57.75 -44.45,-73.76 -76.25,-119.84zm-12653.9 1087.83c-299.91,-203.08 36.94,-972.82 383.41,-1086.1 -16.53,47.7 -198.69,273.42 -301.43,470.47 -108.51,208.12 -134.71,357.35 -81.98,615.63zm11971.45 -1513.16c136.14,135.43 191.07,895.7 185.03,1040.25 -116.19,-49.2 -109.27,-60.8 -268.35,-60.52 44.16,-96.85 90.29,-105.33 139.32,-180.5l-65.96 -23.56c-3.99,-1.85 -11.09,-5.95 -14.42,-7.57 -3.4,-1.66 -10.22,-4.62 -14.59,-8.06 30.33,-72.62 15.46,-54.66 67.49,-92.07l-16.5 -30.07c-36.73,-87.73 -12.87,-49.79 42.23,-155.68 -0.4,-0.19 -33.1,-13.36 -33.9,-13.81 -51.39,-28.5 -14.42,-5.48 -39.66,-25.88 21.98,-65.51 17.24,-33 13.84,-91.57l5.47 -350.96zm-10942.38 499.84l70.21 101 -69.38 34.17c23.21,36.5 54.88,71.61 75.73,125.03 -38.48,30.26 -61.33,21.49 -93.95,39.7 66.33,88.11 92.65,77.66 135.59,177.86 -168.55,0.96 -143.36,14.58 -267.03,61.5 -7.98,-245.33 58.78,-907.04 183.68,-1053.35 0.45,166.09 18.29,197.52 9.7,366.38 -3.9,77 14.45,68.02 -10.01,111.9 -0.99,1.78 -25.64,20.67 -34.54,35.81zm11429.47 -218.03c173.15,118.93 309.35,588.67 334.61,877.7 28.99,331.48 -116.75,774.9 -384.11,831.74 122.37,-234.56 264.88,-301.57 229.54,-834.65 -23.51,-354.7 -109.65,-568.86 -180.04,-874.79zm-11834.59 1710.35c-582.76,-225.9 -420.58,-1327.05 -46.46,-1704.65 -73.69,404.98 -270,822.4 -137.76,1349.92 48.23,192.35 127,221.36 184.22,354.73zm689.93 -1708.4c-86.82,-773.99 23.2,-1645.5 265.59,-2305.28 693.16,-1886.78 2304.03,-3218.4 4361.54,-3446.06 1613.15,-178.47 3087.1,435.63 3964.2,1197.71 951.72,826.95 1702.05,2035.12 1817.56,3400.07 125.96,1488.6 -281.95,2881.58 -1213.96,3944.57 -368.04,419.79 -837.84,846.66 -1425.72,1164.92 -143.22,77.53 -295.55,135.01 -438.95,199.11 -151.6,67.77 -306.57,147.95 -461.69,197.9 -302.53,97.41 -733.5,209.1 -1080.34,236.43 -796.04,62.7 -1634.54,-7.59 -2306.6,-258.11 -332.18,-123.81 -600.51,-238.07 -889.21,-407.68 -624.61,-366.91 -971.83,-671.67 -1426.2,-1183.81 -350.73,-395.3 -508.04,-747.76 -743.16,-1207.12 -216.06,-422.09 -368.58,-1046.88 -423.06,-1532.65zm-1872.51 -301.64c116.85,120.1 126.1,299.32 395.8,368.32 218.16,55.81 452.66,-41.77 646.75,-85.46 -111.39,247.59 -1069.82,385.57 -1042.55,-282.86zm13107.79 280.89c288.94,54.03 633.65,233.34 888.67,-54.16 63.73,-71.89 94.23,-182.24 154.99,-244.76 31.02,693.99 -881.16,550.8 -1043.66,298.92zm-530.59 -412.85c414.47,386.3 794.83,1768.22 116.4,1942.39 -179.88,46.2 -324.74,-14.88 -405.31,-114.73 -254.59,-315.51 142.79,-747.24 339,-486.76 -316.32,-34.6 -319.29,332.72 -135.92,385.48 225.37,64.83 323.87,-209.5 321.44,-418.97 -2.76,-239.95 -20.49,-476.4 -71.78,-703.58 -42.92,-190.06 -150.61,-427.38 -163.83,-603.83zm-11055.36 1325.57c470.59,-338.13 645.32,796.72 -58.02,614.88 -154.31,-39.89 -253.86,-144.83 -311.27,-268.12 -233.13,-500.71 162.84,-1412.44 423.87,-1671.28 -52.43,402.1 -251.78,633.58 -237.71,1306.33 12.94,619.15 564.39,482.07 424.62,135.29 -19.8,-49.1 -49.69,-85.67 -98.22,-99.99 -71.55,-21.09 -94.66,16.99 -143.27,-17.11zm12010.38 -1250.33c43.2,-196.89 293.87,-230.85 382.82,-80.14 169.8,287.67 -250.6,556.65 -796.75,293.29 -155.94,-75.19 -334.4,-184.37 -386.94,-292.38 181.5,59.61 1095.38,522.23 1076.02,45.71 -148.22,-70.97 -153.88,-18.28 -275.15,33.52zm-13183.16 -31.39c-34.28,465.45 929.97,0.56 1074.54,-46.92 -99.95,189.57 -628.96,459.43 -958.71,394.01 -159.74,-31.72 -335.65,-181.94 -229.28,-379.25 91.38,-169.48 354.53,-133.11 386.05,65.19 -108.9,-52.95 -146.36,-103.91 -272.6,-33.03zm637.66 -342.87c79.56,89.89 93.25,86.03 76.04,240.54 -90.27,44.67 -236.25,120.19 -282.78,-28.95 -48.46,-155.35 65.91,-218.92 206.74,-211.59zm13129.28 258.75l-126.13 0.73c-189.2,-279.05 316.74,-306.71 126.13,-0.73zm-1024.92 -61.95c-59.99,-213.27 227.01,-271.71 287.63,-83.54 61.99,192.48 -242.45,244.24 -287.63,83.54zm-12896.66 -113.4c17.18,66.69 8.9,108.03 -10.56,156.13 -297.57,104.75 -226.78,-324.7 10.56,-156.13zm12525.41 -88.9c523.13,-549.25 1307.72,-468.08 1201.3,-27.97 -45.09,186.51 -335.82,183.6 -392.9,-26.22 39.19,17.9 110.62,61.94 165.86,63.07 212.14,4.31 165.1,-432.59 -636.7,-138.34 -96,35.23 -245.69,127.7 -337.56,129.46zm-12095.36 -48.83c-78.3,196.56 -336.48,222.6 -389.73,38.44 -59.63,-206.14 87.9,-344.86 266.13,-366.91 358.07,-44.28 810.1,197.59 934.27,378.45 -122.8,-14.04 -900.16,-404 -1052.7,-154.09 -35.32,57.84 -33.07,140.87 41.33,161.42 79.91,22.06 127.68,-30.49 200.7,-57.31zm-608.21 -77.35c15.51,-629.24 791.18,-554.54 1003.89,-304.75 -225.3,-8.77 -721.77,-233.13 -926.37,187.61 -28.02,57.63 -30,78.35 -77.52,117.14zm13110.84 -297.18c3.35,-4.73 8.8,-17.32 10.83,-13.67 0.1,0.19 12.35,-31.1 111.35,-78.7 159.46,-76.67 336.95,-127.58 518.22,-91.88 218.19,42.96 373.26,234.1 372.93,484.97l-79.44 -121.72c-21.38,-39.7 -47.18,-72.49 -75.91,-102.1 -56.02,-57.7 -121.31,-107.68 -221.66,-137.14 -242.2,-71.14 -416.34,37.04 -636.32,60.24zm-683.06 -692.3c172.11,-29.95 133.37,-9.42 270.08,-71.51 6.3,355.81 -72.38,761.28 -187.72,1079 -35.55,-222.16 38.76,-296.3 -35.29,-483.32l74.36 -39.12 -70.54 -97.34c-14.21,3.26 54.25,-23.3 67.87,-52.34 -27.85,-34.57 -65.25,-83.7 -91.28,-128.73l115.93 -59.53c-67.35,-58.01 -118.91,-64.53 -143.41,-147.11zm-10877.79 162.44l103.7 36.51 -75.68 135.62c13.45,38.75 -15.91,-7.31 18.46,19.86l52.12 36.98c-57.06,38.72 -31.68,17.82 -64.49,73.23 29.1,86.58 65.95,-65.54 36.16,237.39 -10.36,105.31 4.89,215.64 -8.47,307.24 -88.1,-344.82 -208.56,-632.34 -186.28,-1078.81 149.85,58.29 72.59,54.03 279.05,60.03 -26.18,62.02 -106.75,124.2 -154.57,171.95zm11069.64 -672.26c92.74,217.09 -98.16,258.95 -175.82,173.38 -79.77,-87.92 2.36,-232.78 175.82,-173.38zm-11115.84 198.79c-68.83,-129.39 -50.14,-222.82 127.17,-216.11 52.54,53.84 96.83,74.32 58.14,162.59 -48.37,75.41 -93.86,68.4 -185.31,53.52zm-581.01 854.8c-392.16,-163.02 -657.54,-901.17 -392.52,-1070.98 -8.99,391.66 -44.17,416.56 242.36,845.54 52.79,79.04 110.01,144.95 150.16,225.44zm12698.51 -1056.75c104.01,236 100.56,393.82 -23.46,641.01 -74.48,148.44 -261.88,377.62 -401.16,420.52 83.47,-194.36 428.71,-510.34 415.06,-897.7 -1.06,-30.02 -9.37,-74.18 -9.44,-86.3 -0.05,-6.05 -14.56,-35.11 19,-77.53zm-1030.16 318.51c-260.49,185.75 -541.92,-263.46 -316.46,-514.28 337.14,-375.05 1053.91,44.16 675.84,1106.61 -79.27,222.76 -248.05,598.56 -389.97,698.01 62.72,-412.13 230.77,-586.58 236.7,-1266.48 1.88,-215.99 -69.97,-475.74 -313.44,-428.7 -109.04,21.05 -147.45,124.34 -118.67,242.71 46.91,193.16 136.75,118.06 226,162.13zm-11029.01 1292.92c-270.52,-211.28 -659.22,-1195.06 -407.06,-1675.49 125.35,-238.82 486.97,-404.47 701.5,-121.56 241.58,318.56 -156.04,723.26 -346.09,476.1 149.14,29.86 199.26,7.87 241.47,-118.98 104.97,-315.35 -409.78,-456.31 -430.65,150.88 -18.57,540.57 190.1,941.76 240.83,1289.05zm11392.17 -2125.88c272.45,90.9 400.23,461.5 380.69,837.95 -8.57,165.04 -46.86,350.25 -102.88,490.68 -28.06,70.34 -66,143 -97.94,200.61 -17.44,31.5 -45.11,75.4 -62.25,98.28 -29.79,39.71 -49.69,47.35 -65.24,71.49 -0.33,-66.71 83.28,-298.1 104.81,-391.25 147.7,-639.13 88.38,-848.37 -157.19,-1307.76zm-11830.22 1707.66c-417.24,-414.73 -498.68,-1521.53 43.41,-1705.52 -56.42,135.33 -132.29,195.22 -182.99,357.49 -45.66,146.19 -47.1,310.76 -38.95,478.18 24.73,509.36 122.65,563.22 178.53,869.85zm772.97 -1974.32c-68.06,-216.2 113.57,-248.83 186.82,-165.32 84.11,95.89 -14.64,245.92 -186.82,165.32zm10187.77 -182.24c140.31,-95.56 219.16,156.92 102.83,207.76 -76.65,33.47 -142.51,-7.22 -160.64,-63.96 -26.63,-83.26 16.6,-115.7 57.81,-143.8zm-669.32 -519.34c-41.88,-189.95 4.75,21.73 -134.29,-181.89 -59.68,-87.4 -115.22,-101.56 -174.85,-172.02 202.94,20.56 813.15,485.47 873.37,611.41l-69.36 35.02c-120.65,59.51 -88.68,83.79 -164.93,122.4l2.97 -217.85 -110 40.16 -25.05 -138.51 -58.07 -15.04c-34.53,-7.53 -22.63,-7.22 -38.4,-130.49l-101.39 46.81zm-9270.35 257.5c120.13,-192.43 644.84,-568.05 879.43,-633.07 -32.88,37.62 -57.29,47.52 -95.84,82.46 -65.38,59.26 -204.14,205.07 -233.83,285.51 -62.37,-23.15 -10.32,-25.15 -88.46,-26.93l-16.35 113.43 -77.53 -0.64 -20.11 131.19c-86.21,17.63 -28.99,-11.98 -118.17,-3.98l-0.35 184.81 -228.79 -132.78zm10700.98 512.1c-41.97,-425.47 -216.37,-578.76 -427.71,-771.85 -261.93,-239.34 -624.26,-383.16 -702.3,-476 623.01,15.16 1431.41,793.88 1130.01,1247.85zm-842.21 -337.99c-32.88,63.24 -69.8,64.52 -65.97,162.31 8.3,212.03 263.06,275.65 356.47,136.84 302.79,-449.89 -1143,-1111.83 -1220.07,-1208.68 597.82,39 1250.4,463.48 1439.77,797.42 163.33,288.04 -0.03,681.47 -297.06,694.92 -382.32,17.34 -533.37,-533.54 -213.14,-582.81zm-9929.66 -8.49c309.59,-52.88 308.03,552.32 -109.41,579.65 -389.76,25.5 -479.82,-395.65 -370.4,-656.32 146.8,-349.69 879.98,-797.23 1418.36,-827.63 -34.56,50.95 -78.82,69.75 -132.53,101.11 -49.36,28.83 -88.76,50.82 -140.38,78.97 -92.96,50.68 -166.8,99.85 -258.49,159.83 -181.5,118.72 -981.36,676.5 -602.7,920.52 104.03,67.04 231.01,-1.12 277.79,-92.79 80.69,-158.07 4.16,-192.13 -82.24,-263.34zm-801.25 315.51c-101.56,-113.98 -30.03,-388.69 27.5,-504.97 178.86,-361.57 697.48,-680.62 1131.12,-732.91 -110.9,143.47 -1058.06,449.04 -1158.62,1237.88zm11306.94 -1218.48c176.27,69.31 385.89,206.36 375.41,437.61 -89.11,-78.82 -119.99,-233.52 -426.47,-347.13l-484.79 -111.66c-22.28,-2.79 -68.15,-6.71 -86.54,-11.33l-64.89 -27.26c296.77,-40.05 419.05,-45.73 687.28,59.77zm-11417.84 426.76c53.25,-522.86 905.94,-570.39 1055.79,-468.24 -233.51,43.01 -408.69,54.47 -619.42,139.3 -131.53,52.94 -267.52,121.86 -349.2,226.44l-87.17 102.5zm10173.39 -876.27c-150.94,-88.53 -26.51,-368.93 166.99,-248.62 134.62,83.7 28.49,363.89 -166.99,248.62zm-8527.45 -1.06c-89.3,19.9 -162.13,39.22 -226.1,-42.05 -48.04,-61.01 -33.38,-132 17.87,-181.93 129.93,-126.52 333.83,-1.85 208.23,223.98zm8955.99 -164.42c-136.18,-569.36 660.56,-318.56 334.43,122.87 -136.31,184.49 -539.38,434.37 -916.17,372.09 99.83,-61.01 294.53,-106.6 534.03,-254.22 88.19,-54.35 443.2,-281.38 245.6,-443.23 -163.4,-49.72 -150.87,108.29 -197.89,202.49zm-8816.25 496.6c-408.61,39.97 -778.42,-184.44 -942.15,-395.88 -111.12,-143.47 -63.48,-391.93 103.63,-430.86 219.7,-51.19 320.78,168.29 230.65,330.14 -25.07,-57.68 -26.93,-144.13 -66.85,-185.94 -50.33,-52.69 -141.92,-48.08 -174.24,25.52 -131.74,300.07 795.1,611.36 848.96,657.02zm7150.69 -1030.4c116.57,68.23 574.62,646.75 612.46,864.34 -31.4,-47.02 -146.67,-148.37 -191.52,-189.77 -211.32,-195.06 -185.45,-64.55 -125.63,-193.16 -234.9,-60.61 -63.43,-57.56 -193.35,-106.64 -26.94,-10.18 -42.45,-7.55 -70.47,-11.54l24.08 -119.16 -198.95 -3.35c33.45,-74.3 45.84,-65.44 83.97,-120.43 38.8,-55.98 30.8,-75.17 59.41,-120.29zm-6673.16 836.49c67.46,-242.52 475.51,-742.9 616.06,-851.59 56.47,205.63 79.34,142.42 142.8,263.95l-215.24 -3.23c16.31,64.99 24.92,42.19 43.88,114.75 -150.49,14 -135.19,-7.36 -159.86,106.18l-114.27 3.89c2.59,5.58 7.76,11.79 9.79,15.66 64.23,121.67 34.07,17.04 -116.07,179.26 -12.51,13.5 -165.83,148.44 -207.09,171.13zm8890.89 -62.93c-95.47,130.16 -364.5,307.38 -588.31,288.72 20.96,-6.75 198.03,-117.55 235.4,-142.27 462.98,-306.24 337.73,-484.98 273.8,-799.09 193.24,100.79 200.2,487.49 79.11,652.64zm-9915.95 293.15c-229.03,-6.75 -487.44,-153.81 -593.79,-293.97 -129.99,-171.32 -131.55,-560.62 60.25,-647.76 -15.8,135.4 -76.04,180.8 -55.34,347.62 38.22,307.94 335.02,438.9 588.88,594.11zm9682.11 -978.53c-143.48,70.5 -256.01,-46.51 -175.99,-156.72 77.93,-107.33 246.59,-61.81 175.99,156.72zm-10009.98 -182.59c131.51,-89.52 227.21,108.21 135.38,178.77 -43.19,33.18 -139.08,37.87 -175.98,-14.65 -55.87,-79.6 -4.48,-133.42 40.6,-164.12zm7867.04 30.51c5.05,438.6 -727.02,177.18 -420.54,-117.26 60.55,91.83 52.78,188.94 178.93,223.49 191.14,52.36 188.66,-64.32 241.61,-106.23zm-5735.83 22.41c60.74,57.1 126.48,144.83 259.08,82.06 47.37,-22.43 75.7,-51.96 101.62,-97.67l61.02 -118.58c251.33,322.99 -411.64,527.45 -421.72,134.19zm-1547.64 260.64c-165.69,120.08 -395.28,-71.6 -298.17,-263.66 170.29,-336.75 846.48,20.53 822.22,883.06 -41.43,-50.67 -131.25,-336.72 -255.23,-541.49 -69.21,-114.26 -245.97,-395.67 -441.08,-295.54 -138.35,165.79 114.07,183.37 172.26,217.63zm8306.07 593.06c-34.72,-382.22 169.33,-787.09 376.75,-929.31 160.99,-110.4 389,-85.37 446.53,92.46 70.32,217.42 -147.84,313.78 -340.54,238.36 110.48,-66.1 228.15,0.14 238.68,-173.17 -156.22,-235.8 -395.73,124.81 -458.31,224.73 -197.32,315 -197.91,434.52 -263.11,546.93zm-1307.22 -1051.22c213.8,-50.68 259.45,143.59 134.25,192.46 -102.97,40.17 -235.5,-14.32 -134.25,-192.46zm-5168.9 185.43c-175.92,60.75 -286.79,-70.84 -187.15,-167.19 80.71,-78.08 261.88,-41.47 187.15,167.19zm6432.26 310.52c6.97,-643.01 751.12,-866.03 958.59,-514 -265.64,-36.31 -380.79,-160.02 -622.84,55.95 -213.42,190.42 -236.01,360.35 -335.75,458.05zm-1336.87 -556.38c134.79,-460.39 570.48,-243.93 835.32,143.5 131.81,192.83 455.62,724.87 413.71,1041.91 -89.06,-126.29 -160.14,-245.19 -236.79,-384.42 -119.58,-217.21 -365.51,-535.89 -544.21,-690.07 -159.59,-137.73 -214.17,-152.33 -468.03,-110.92zm-6292.8 1230.25c8.12,-383.72 247.62,-858.53 431.42,-1091.7 95.11,-120.66 237.71,-291.16 400.87,-355.66 232.07,-91.77 389.69,40.97 440.25,238.11 -268.11,-71.91 -299.93,-44.88 -481.53,97.51 -201.31,157.84 -416.2,490.61 -554.1,719.84 -73.82,122.7 -153.47,298.26 -236.91,391.9zm-1048.27 -1164.97c104.55,-179.19 447.33,-235.63 642.15,-101.16 135.48,93.5 309.07,334.43 317.03,569.22 -62.56,-61.06 -113.4,-142.37 -165.38,-223.85 -287.22,-450.17 -509.16,-311.64 -793.8,-244.21zm1048.98 532.05c33.16,-444.86 454.22,-1163.08 971.61,-1111.25 -29.76,60.47 -95.51,66 -168.94,110.21 -406.8,245.03 -644.66,805.39 -802.67,1001.04zm7544.29 -21.92c-103.25,-129.13 -287.21,-491.96 -416.1,-631.45 -191.99,-207.79 -367.76,-316.43 -552.88,-469.02 467.33,-74.95 1000.11,702.66 968.98,1100.47zm44.45 -168.46c-8.17,-18.37 -57.95,-766.01 -380.27,-998.76 -57.5,-41.53 -65.55,-24.89 -113.8,-77.89 215.47,-16.48 384.58,211.84 451.51,377.68 55.02,136.39 127.44,571.25 42.56,698.97zm-7628.71 -13.1c-93.74,-163.79 -72.33,-817.86 334.05,-1026.16 152.96,-78.41 138.05,-18.29 142.06,-15.75 -179.88,136.97 -245.15,160.11 -347.43,425.84 -108.94,283.09 -90.91,485.47 -128.68,616.07zm6414.35 -2669.78c76.63,-37.08 129.53,-84.08 237.88,-81.8 155.54,361.66 -128.58,982.89 -377.46,1104.45 45.44,-161.52 132.22,-234.51 159.27,-466.28 23.75,-203.38 -15.49,-362.58 -19.69,-556.37zm-5062.23 1014.7c-113.45,-38.23 -284.05,-291.54 -343.63,-438.01 -92.96,-228.6 -98.69,-421.57 -34.61,-676.42l238.09 93.42c-9.65,201.93 -29.2,368.11 -14.73,578.81 16.46,239.62 90.37,277.21 154.88,442.2zm3862.04 -1001.13c69.59,167.94 -77.69,232.68 -78.23,231.62 -1.96,-3.7 -8.48,5.82 -12.35,9.17 143.86,232.19 590.5,63.85 534.96,-288.89 -79.98,-507.78 -906.66,-535.06 -1122.63,173.31 -87.27,286.26 31.94,608.25 163.05,801.92 360.67,532.73 1582.8,504.48 2027.98,-292.14 203.67,-364.46 106.98,-461.14 49.05,-840.06 177.31,-52.95 763.35,-354.09 1108.98,-478.23 -15.2,61.95 -816.03,1321.73 -951.9,1562.55 -150.59,266.92 -783.27,1427.55 -855.98,1646.26 -154.02,-43.33 -339.19,-138.78 -511.11,-195.67 -941.87,-311.74 -2024.44,-375.14 -2992,-141.85 -344.81,83.14 -984.43,329.81 -1027.87,337.45 -146.02,-384.21 -1069.36,-2025.84 -1325.32,-2430.18 -79.93,-126.29 -459.47,-689.23 -485.53,-775.67 192.46,40.31 403.59,153.83 574.99,230.47 162.6,72.71 386.03,193.52 527.55,246.7 -33.59,375.54 -147.11,446.16 55.28,821.35 404.09,749.04 1525.55,870.53 1960.47,378.54 356.83,-403.64 294.91,-1071.09 -156.34,-1316.29 -264.55,-143.75 -576.53,-27.91 -663.37,204.65 -115.41,309.04 160.7,535.53 435.67,376.17 -37.16,-78.68 -171.76,-191.12 -21.44,-266.62 319.88,-53.25 97.49,664.71 -436.14,366.21 -272.06,-152.19 -250.46,-630.37 -23.23,-838.41 226.69,-207.58 626.57,-276.33 962.6,-114.81 315.3,151.54 436.21,379.39 571.85,640.71 65.79,-34.92 26.09,7.01 69.43,-65.44l90.01 -258.02c-129.93,-187.11 -550.16,-398.11 -394.34,-937.47 56.89,-196.93 423.7,-811.62 543.05,-870.41 110.15,113.89 443.04,659.51 502.34,852.69 57.41,187 25.7,435.13 -58.22,582.23 -47.84,83.86 -256,300.91 -329.58,346.01 7.36,101.98 65.72,274.77 125.3,318.96 155.16,-250.43 216.65,-473.19 616.11,-652.41 916.05,-411 1511.15,636.61 998.27,991.17 -343.02,237.13 -843.58,-11.93 -595.67,-379.9l124.31 24.33zm-10396.66 15521.48l17827.76 0 0 -18376.52 -17827.76 0 0 18376.52z"/>
   <g>
    <path class="fil1" d="M9318.09 15470.3c-120.43,-228.39 -128.7,-620.59 -843.76,-597.93 -231.15,7.34 -411.38,87.15 -517.61,208.96 -601.57,689.96 1199.11,1124.45 1617.21,1784.14 218.59,344.88 156.3,804.36 -36.61,1134.61 -364.99,624.8 -1593.7,641.77 -2198.01,351.12 -226.08,-108.73 -249.26,-188.03 -217.32,-486.24 21.48,-200.57 46.58,-453.06 173.29,-558.23l60.58 254.86c23.51,96.59 43.43,162.01 90.6,246.2 286.95,512.05 980.16,605.67 1361.94,362.44 323.8,-206.31 386.47,-580.96 55.16,-837.62 -407.67,-315.79 -1280.45,-842.82 -1495.12,-1134.4 -468.77,-636.73 29.84,-1494.22 726.04,-1556.66 398.07,-35.73 904.44,17.04 1311.64,32.39 21.32,85.13 -48.77,736.71 -88.03,796.36zm3484.96 2557.4c-15.72,-130 5.19,-482.78 5.19,-645.87 0,-219.43 -2.78,-440.72 0,-660.44l-1743.86 4.62 18.75 1218.01c-15.21,146.35 -1.54,272.5 83.16,356.88 75.47,75.19 213.14,72.01 300.98,132.71 -110.36,69.67 -988.85,46.77 -1214.03,41.68l-284.76 -15c-23.82,-2.98 -28.28,-2.67 -51.7,-9.59 -64.16,-18.96 -21.17,-2.55 -47.91,-20.91 384.7,-189.57 342.73,-47.93 367.56,-743.23 25.73,-719.93 9.42,-1522.27 7.51,-2249.63 -2.15,-801.81 -187.29,-546.37 -401.96,-709.41 121.66,-52.93 1470.88,-51.52 1614.38,-7.81 -97.52,152.59 -401.58,-98.77 -399.88,657.61 0.8,357.28 2.99,714.57 0.49,1071.87l1767.61 7.15c1.49,-237.09 27.57,-1322.55 -57.13,-1510.86 -79.5,-176.73 -198.31,-115.3 -314.66,-216.04 515.83,-40.52 1042.93,-19.5 1563.18,-10.03 -23.92,25.6 -1.94,10.71 -37.82,29.18 -263.39,135.57 -324.32,-49.83 -348.4,708.26 -11.24,354.38 -46.01,2526.9 39.94,2740.4 78.82,195.77 201.55,138.27 336.74,236.36 -111.28,61.51 -628.29,25.32 -795.73,28.22 -124.95,2.18 -251,16.69 -379.23,15.15l-378.59 -43.37c66.83,-54.82 384.07,-92.46 350.17,-405.91zm-2620.35 -5588.73c-965.59,139.96 -1658.94,428.47 -2357.96,1023.64 -289.08,246.11 -636.51,673.52 -835.06,995.57 -432.01,700.81 -659.95,1653.23 -575.86,2507.28 166.28,1688.62 1324.99,2982.69 2736.29,3517.03 1043.93,395.28 2437.59,315.99 3412.61,-251.66 521.88,-303.82 804.18,-539.99 1161.01,-931.73 629.8,-691.4 1136.69,-1803.54 1012.81,-3115.29 -166.24,-1760.27 -1322,-2943.78 -2740.36,-3507.91 -430.05,-171.06 -1313.01,-309.47 -1813.48,-236.93z"/>
    <path class="fil1" d="M10157.02 10276.56c21.88,201.34 219.32,363.93 453.12,336.37 199.02,-23.49 370.61,-215.36 339.57,-452.16 -64.21,-489.67 -851.96,-429.57 -792.69,115.79z"/>
   </g>
  </g>
 </g>
</svg>
