<?xml version="1.0" encoding="UTF-8"?>
<!DOCTYPE svg PUBLIC "-//W3C//DTD SVG 1.1//EN" "http://www.w3.org/Graphics/SVG/1.1/DTD/svg11.dtd">
<!-- Creator: CorelDRAW -->
<svg xmlns="http://www.w3.org/2000/svg" xml:space="preserve" width="210mm" height="297mm" version="1.1" style="shape-rendering:geometricPrecision; text-rendering:geometricPrecision; image-rendering:optimizeQuality; fill-rule:evenodd; clip-rule:evenodd"
viewBox="0 0 21000 29700"
 xmlns:xlink="http://www.w3.org/1999/xlink"
 xmlns:xodm="http://www.corel.com/coreldraw/odm/2003">
 <defs>
  <style type="text/css">
   <![CDATA[
    .str0 {stroke:#373435;stroke-width:20;stroke-miterlimit:22.9256}
    .fil1 {fill:#FEFEFE}
    .fil0 {fill:black}
   ]]>
  </style>
 </defs>
 <g id="Layer_x0020_1">
  <metadata id="CorelCorpID_0Corel-Layer"/>
  <g id="_2872635549728">
   <rect class="fil0 str0" x="-1023.93" y="2445.22" width="22969.88" height="22969.88"/>
   <path class="fil1" d="M10219.32 23953.86c-31.8,-191.37 254.4,-223.89 293.4,-65.51 51.59,209.57 -267.94,218.62 -293.4,65.51zm303.35 -942.63c-152.25,218.3 -470.07,-9.81 -312.15,-222.48 121.34,-163.4 481.54,-20.37 312.15,222.48zm797.88 -123.19c107.79,28.68 377.38,248.65 627.28,365.46 371.49,173.65 393.56,151.15 802.31,110.69 -252.01,333.58 -1209.39,-10.41 -1429.59,-476.15zm-3323.55 485.99c801.54,73.48 935.37,-274.84 1422.49,-507.79 -62.15,184.4 -349.75,403.87 -540.84,501.29 -184.49,94.04 -716.66,238.83 -881.65,6.5zm3128.27 -609.31c166.98,131.17 323.97,524.4 252.76,802.59 -60.77,237.43 -344.24,532.08 -645.6,440.99 759.37,-278.54 435.31,-832.47 392.84,-1243.58zm-1054.26 1285.8c-371.02,38.06 -615.21,-165.54 -702.67,-418.26 -52.24,-150.94 -38.94,-334.32 11.97,-485.9 24.15,-71.9 53.26,-130.38 86.06,-193.05 21.7,-41.48 25.7,-54.02 56.39,-93.78 2.17,-2.84 36.39,-41.16 38.1,-42.78 35.09,-33.63 7.25,-12.36 49.66,-40.07 -42.59,273.37 -187.9,522.38 -82.58,830.53 125.4,366.9 424.65,342.55 543.07,443.31zm1081.51 -1410.23c171.1,25.14 360.73,95.16 539.18,135.92 208.11,47.49 406.08,63.31 627.03,78.1 757.2,50.69 793.1,-146.92 1086.56,-284.86 -236.29,744.4 -1948.68,483.8 -2252.77,70.84zm-3827.41 -93.52c142.42,109.99 184.58,173.89 438.14,246.4 778.44,222.63 1375.43,-92.61 1816.15,-153.2 -125.03,208.25 -815.33,408.77 -1180.44,424.62 -490.12,21.29 -985.09,-174.41 -1073.85,-517.82zm3250.82 -264.64c458.32,211.97 830.83,1645.45 28.8,1476.87 -231.17,-48.6 -234.12,-416.41 32.74,-486.81 -43.43,101.78 -90.25,114.58 -85.66,210.15 4.28,88.81 70.03,143.53 175.1,122.5 147.1,-29.45 171.59,-257.88 147.41,-432 -44.55,-320.66 -196.86,-617.51 -298.39,-890.71zm-498.06 1348.78c168.39,-162.13 78.34,-196.94 -16.34,-361.12 272.06,47.96 300.06,380.78 121.15,485.79 -110.92,65.1 -276.34,28.36 -366.19,-25.7 -85.22,-51.24 -137.39,-146.72 -159.12,-273.11 -82.81,-481.57 277.43,-1013.8 518.86,-1182.08 -32.89,147.72 -650.65,1298.86 -98.36,1356.22zm2368.12 -1537.46c-35.62,-202.21 301.05,-238.9 311.99,-49.1 11.91,206.25 -284.03,207.92 -311.99,49.1zm-4408.69 91.41c-109.21,-164.07 1,-340.56 183.41,-247.51 121.71,62.08 115.6,325.91 -183.41,247.51zm585.21 61.52l67.03 -326.64c57.94,30.15 44.95,20.6 100.16,77.17 23.81,24.38 25.21,32.14 48.12,53.59 51.92,48.57 13.73,19.75 58.9,44.53 53.76,-80.51 7.69,-64.42 78.74,-118.3 39.1,14.82 64.86,35.27 81.63,41.78 6.88,2.69 27.06,10.51 34.44,11.95 85.81,16.79 75.83,-79.25 225.16,52.91 96.51,-89.12 -62.09,-46.85 266.64,-59.59 119.55,-4.63 253.97,14.41 392.26,11.42 -64.48,69.94 -166.07,83.24 -269.89,106.39 -112.35,25.05 -211.37,42.01 -330.85,59.27 -267.91,38.64 -466.75,50.45 -752.34,45.52zm2111.56 -225.59c181.54,8.38 448.77,27.22 603.69,-31.82 137.02,62.82 -125.44,-88.59 42.44,34.66 45.44,33.37 -12.44,21.07 60.82,39.06 19.03,-12.43 50.38,-36.01 77.32,-41.81 106.24,-22.8 16.86,84.49 261.06,-67.74 31.53,88.74 13.14,100.64 83.33,160.29 44.39,-36.15 142.79,-172.62 173.7,-210.3l91.02 342.96c-333.36,8 -1195.56,-53.85 -1393.38,-225.3zm1574.86 100.11c-234,-256.38 273.46,-710.97 689.09,-381.13 282.7,224.36 186.51,698.02 -213.38,878.7 -663.45,299.74 -1822.81,-209.69 -2177.89,-517.99 582.63,83.68 1053.91,316.07 1729.55,292.83 747.29,-25.72 574.95,-695.56 157.46,-546.26 -120.1,42.98 -156.84,123.93 -172.96,214.7l-11.87 59.15zm-2151.98 -28.86c-141.09,236.08 -1523.68,860.45 -2219.53,511.87 -329.3,-164.95 -559.88,-600.55 -153.86,-892.51 455.28,-327.37 951.86,303 592.84,456.76 125.92,-331.24 -287.42,-426.26 -452.13,-249.85 -133.21,142.71 -2.94,437.68 446.39,473.22 665.88,52.64 1293.87,-228.12 1786.29,-299.49zm4591.25 494.11c208.76,-221.26 394.21,-157.56 553.06,-890.1 33.14,-152.73 48.36,-378.58 82.25,-430.59 170.56,511.13 -115.08,1323.68 -635.31,1320.69zm-9381.62 -1326.23c47.96,399.74 146.76,1106.12 581.49,1269.04 -7.87,6.07 12.49,120.18 -208.82,-4.22 -435.88,-245.02 -475.35,-858.92 -372.67,-1264.82zm1614.17 218.01c76.42,96.42 21.3,150.5 -27.09,213.9 -137.43,24.61 -271.7,-9.72 -239.52,-165.29 18.45,-89.25 120.47,-128.04 204.49,-97.83 96.91,34.83 33.2,14.71 62.12,49.22zm6813.26 221.61c-105.4,-151.97 -107.73,-133.07 1.95,-278.13 310.58,-32.81 330.6,292.22 -1.95,278.13zm3166.74 -431.27c34.54,76.77 30.42,151.21 -14.13,221.32 -355.43,107.44 -328.55,-319.96 14.13,-221.32zm-12959.15 238.25c-240.57,49.87 -341.6,-113.55 -212.64,-220.9 141.06,-117.46 304.37,7.03 212.64,220.9zm11438.86 -424.64c177.01,197.35 230.09,412.16 442.97,560.32 311.97,217.1 450.64,152.29 811.24,56.93 -123.76,243.64 -603.47,260.11 -848.25,102.31 -177.08,-114.15 -418.27,-433.61 -405.96,-719.56zm-11400.95 602.22c357.91,62.93 480.61,196.68 804.45,-46.85 244.54,-183.9 341.33,-443.13 416.81,-528.06 32.93,-37.06 10.33,-15.3 47.22,-43.36 -22.79,408.26 -352.61,885.41 -865.18,820.34 -154.17,-19.57 -337.51,-74.19 -403.3,-202.07zm9659.45 779.18c224.64,-138.49 529.32,114.17 1321.52,-957.34 109.68,-148.39 183.19,-331.51 304.43,-458.34 -53.32,678.19 -845.55,1689.82 -1625.95,1415.68zm-8289.47 -1439.06c117.77,119.98 195.43,313.96 295.25,464.43 175.41,264.45 468.65,613 749.24,780.03 322.75,192.16 516.23,132.75 613.14,203.33 -819.67,265.38 -1620.25,-749.24 -1657.63,-1447.79zm-943.84 -295.08c-68.01,-279.33 297.96,-316.66 362.75,-116.87 88.76,273.64 -316.68,306.01 -362.75,116.87zm11792.52 0c-103.94,227.73 -428.71,119.3 -346.28,-140.61 70.09,-220.99 454.85,-97.26 346.28,140.61zm-784.64 -337.55l217.66 440.7c68.3,133.57 165.12,278.07 253.03,380.82 57.95,67.73 242.16,288.84 417.44,198.52 88.94,-45.85 82.46,-142.04 30.01,-198 -53.23,-56.72 -155.54,-60.5 -243.49,-87.6 152.99,-126.86 515.77,13.66 425.9,285.45 -157.74,476.91 -1114.34,101.29 -1100.55,-1019.89zm-10912.55 709.63c-84.91,48.28 -158.23,30.2 -214.34,91.96 -172.86,190.32 321.02,596.95 813.94,-621.9 17.85,-44.18 24.71,-70.61 39.9,-109.25l76.91 -113.21c35.81,428.57 -251.02,964.78 -480.39,1145.14 -161.92,127.3 -484.18,156.24 -599.38,-19.9 -152.71,-233.5 125.89,-515.9 363.36,-372.84zm9576.93 343.43c-106.06,-75.33 -171.44,-212.59 -380.98,-89.98 -374.21,218.95 57.26,790.81 665.72,156.81 168.34,-175.38 331.44,-385.3 487.93,-606.06 103.67,-146.22 324.74,-588.27 416.29,-680.18 0.62,382.25 -188.86,792.83 -359.83,1080.27 -713.47,1199.4 -1668.99,853.42 -1608.29,268.61 47.13,-453.92 773.3,-551.07 779.16,-129.47zm221.84 -72.43c-42.59,-36.62 -179.59,-254.1 -201.04,-289.69l273.18 -1.12 -38.44 -150.09 186.75 -19.19 -7.81 -94.57 166.04 -22.42c-4.43,-60.06 -16.71,-58.83 -40.52,-109.1 158.02,-54.14 357.79,-292.42 465.89,-390.69 5.33,235.76 -617.61,913.51 -804.05,1076.87zm-8771.88 -1050.24l294.35 229.23c96.42,80.48 -7.37,58.92 170.88,128.32 -20.09,67.86 -25.51,57.81 -60.85,118.54l166.38 20.13 -12.03 93.37 182.13 16.12c-0.03,102.19 -28.36,91.93 -4.27,154.81l280.06 -5.75c-97.34,137.97 -65.29,25.58 -196.7,249.68 -33.23,56.66 -6.51,21.15 -30.88,46.88 -101.65,-92.23 -129.92,-111.42 -230.59,-227.5 -196.02,-226.03 -465.32,-547.75 -558.48,-823.83zm-178.1 -91.79c191.99,224.04 458.97,851.9 902.69,1279.62 118.27,114.02 482.25,461.58 747.87,211.94 165.27,-155.34 -87.58,-614.44 -460.02,-284.87 4.55,-381.45 691.32,-337.42 769.85,137.88 74.06,448.43 -466.97,653.52 -870.45,478.52 -465.05,-201.71 -1055.19,-1110.77 -1089.94,-1823.09zm10359.83 -150.82c1282.48,24.75 1517.57,896.72 1119.91,1039.25 -263.88,94.6 -404.87,-85.14 -355.58,-421.6 58.1,88.78 38.47,378.53 321.61,264.33 122.73,-477.7 -748.47,-699.02 -1004.38,-825.23l-34.82 -19.22c-35.71,-22.65 -22.75,-13.1 -46.74,-37.53zm-11718.56 898.97l124.91 -254.04c104.72,274.96 -98.55,525.43 -377.35,384.74 -216.42,-109.16 -179.43,-397.57 -32.86,-566.03 171.03,-196.56 826.96,-552.03 1234.81,-440.91 -131.01,72.98 -819.55,236.32 -1099.06,594.25 -107.38,137.53 -101.77,300.48 149.55,281.99zm12480.72 -922.56c311.53,16.38 631.96,223.78 749.76,389.28 165.55,232.57 112.35,708.37 -138.66,803.88 104.19,-277.77 176.39,-503.66 -20.34,-752.99 -167.25,-211.94 -495.68,-324.5 -590.76,-440.17zm-12986.72 1168.23c-443.69,-219.74 -165.33,-1150.8 654.44,-1167.2 -56.24,72.8 -199.65,137.2 -296.87,194.57 -499.71,294.85 -464.61,525.1 -357.57,972.63zm-921.73 -1809.56c164.5,150.92 172.4,275.96 561.96,412.43 282.55,98.97 506.87,117.28 825.35,168.99 -520.57,196.32 -1378.07,-113.24 -1387.31,-581.42zm14124.44 579.66c284.46,-30.94 560.84,-75.62 800.45,-167.2 221.62,-84.73 296.34,-136.35 441.61,-277.69 57.69,-56.1 73.94,-90.79 121.4,-132.89 2.76,266.93 -260.41,450.25 -488.61,531.2 -229.91,81.56 -664.73,184.95 -874.85,46.58zm-12835.9 -951.74l82.62 -45.91c61.22,-35.98 17.95,-5.24 73.22,-52.94 57.97,-50.04 122.86,-93.84 140.25,-108.08l9.49 277.6 147.1 -38.12c48.45,149.83 -20.77,79.54 74.18,166.41 82.44,75.44 32.99,-21.65 85.38,163.92l106.93 -44.53c59.36,182.26 299.71,295.26 406.2,446.91 -233.06,-71.22 -449.64,-215.87 -612.3,-333.94 -401.84,-291.72 -223.18,-159.79 -513.07,-431.32zm12607.29 -213.26c317.52,244.58 208.58,110.8 326.91,192.93 -141.09,163.83 -835.61,721.84 -1145.12,761.89l329.63 -321.08c56.64,-48.63 47.47,-63.4 54.75,-131.02 73.35,39.26 72.51,58.01 148.47,71.52l141.52 -343.72 141.67 49.89 2.17 -280.41zm-68.88 1128.17c98.77,-86.98 532.23,-283.69 942.84,-599.55 203.71,-156.68 418.61,-394.41 508.85,-635.03 39.9,-106.32 42.44,-246.75 76.48,-316.91 90.8,142.15 40.02,502.69 -39.96,646.8 -234.28,422.07 -933.54,881.2 -1488.21,904.69zm-13695.47 -1551.38c90.56,172.51 -70.9,582.33 1019.41,1260.84 72.39,45.06 164.34,94.28 245.29,139.75 41.16,23.11 71.24,39.75 116.31,64.1l117.06 93.81c-381.65,-14.32 -925.69,-327.93 -1105.47,-499.82 -146.2,-139.84 -264.41,-246.86 -355.65,-432.93 -75.86,-154.67 -148.4,-460.89 -36.95,-625.75zm834.15 59.68c239.79,-79.98 361.44,109.14 235.92,223.49 -124.28,113.23 -325.57,11.04 -235.92,-223.49zm13287.68 130.29c-27.75,-187.42 291.53,-229.17 296.99,-25.64 6.01,223.66 -272.1,193.63 -296.99,25.64zm5.17 223.04c-443.47,-22.64 -262.08,-744.92 228.11,-735.28 478.44,9.4 1002.77,790.48 -367.39,1527.38 -160.68,86.4 -922.69,397.95 -1124.08,324.36l165.12 -88.98c311.81,-122.29 938.15,-545.03 1168.31,-732.45 106.21,-86.48 510.34,-439.05 276.68,-703.23 -166.75,-188.53 -685.43,33.81 -346.75,408.2zm-11800.48 1133.71c-520.88,40.29 -1681.82,-552.41 -1891.14,-1023.84 -169.64,-382.01 45.76,-846.71 457.08,-847.41 500.18,-0.88 639.5,762.56 180.77,740.21 104.23,-105.85 212.45,-157.97 87.08,-355.06 -245.96,-386.7 -1144.84,133.07 475.78,1088.62 216.82,127.83 508.33,256.91 690.43,397.48zm12582.15 -2696.39c129.43,165.47 -8.37,322.59 -243.05,207.45 -44.39,-185.98 43.53,-297.31 243.05,-207.45zm-14349.1 208.57c-91.36,32.37 -149.3,39.02 -264.22,8.87 -128.53,-332.73 347.55,-333.82 264.22,-8.87zm15110.18 -1296.55c473.91,154.28 875.04,1111.74 504.61,1359.54 87.95,-517.67 -69.2,-774.26 -404.48,-1209.74 -55.58,-72.19 -58.37,-92.2 -100.13,-149.8zm-16618.17 1359.74c-393.87,-253.83 48.52,-1215.98 503.52,-1357.57 -21.7,59.62 -260.93,341.76 -395.85,588.06 -142.51,260.14 -176.93,446.68 -107.67,769.51zm15721.92 -1891.38c178.79,169.28 250.93,1119.59 242.99,1300.27 -152.59,-61.5 -143.5,-76 -352.42,-75.65 58,-121.06 118.58,-131.66 182.97,-225.62l-86.62 -29.45c-5.24,-2.31 -14.57,-7.44 -18.94,-9.46 -4.46,-2.08 -13.42,-5.77 -19.16,-10.08 39.84,-90.76 20.31,-68.32 88.63,-115.08l-21.67 -37.59c-48.23,-109.66 -16.89,-62.23 55.46,-194.6 -0.52,-0.23 -43.46,-16.69 -44.51,-17.25 -67.49,-35.63 -18.95,-6.86 -52.09,-32.35 28.87,-81.88 22.64,-41.25 18.17,-114.46l7.19 -438.68zm-14370.45 624.78l92.2 126.24 -91.12 42.72c30.48,45.61 72.08,89.5 99.45,156.27 -50.53,37.83 -80.54,26.87 -123.38,49.63 87.11,110.13 121.68,97.07 178.07,222.32 -221.35,1.2 -188.27,18.22 -350.68,76.87 -10.48,-306.66 77.19,-1133.77 241.22,-1316.64 0.58,207.6 24.02,246.89 12.74,457.95 -5.12,96.25 18.97,85.02 -13.15,139.87 -1.3,2.23 -33.66,25.84 -45.35,44.77zm15010.13 -272.53c227.4,148.66 406.27,735.81 439.44,1097.09 38.07,414.33 -153.33,968.58 -504.45,1039.63 160.71,-293.18 347.87,-376.95 301.46,-1043.27 -30.88,-443.36 -144,-711.06 -236.45,-1093.45zm-15542.18 2137.86c-765.32,-282.37 -552.34,-1658.75 -61.01,-2130.74 -96.78,506.21 -354.59,1027.97 -180.92,1687.35 63.34,240.42 166.79,276.69 241.93,443.39zm906.08 -2135.43c-114.03,-967.45 30.47,-2056.8 348.79,-2881.5 910.32,-2358.39 3025.84,-4022.86 5727.94,-4307.43 2118.53,-223.08 4054.25,544.53 5206.13,1497.09 1249.87,1033.66 2235.28,2543.81 2386.97,4249.95 165.42,1860.67 -370.28,3601.85 -1594.27,4930.53 -483.34,524.73 -1100.33,1058.3 -1872.38,1456.11 -188.09,96.91 -388.14,168.75 -576.47,248.88 -199.09,84.7 -402.61,184.93 -606.32,247.36 -397.31,121.77 -963.3,261.37 -1418.8,295.53 -1045.43,78.37 -2146.62,-9.49 -3029.22,-322.63 -436.25,-154.75 -788.64,-297.57 -1167.79,-509.57 -820.29,-458.63 -1276.29,-839.56 -1873,-1479.72 -460.61,-494.11 -667.21,-934.66 -975.98,-1508.84 -283.75,-527.6 -484.05,-1308.56 -555.6,-1915.76zm-2459.14 -377.03c153.45,150.12 165.61,374.13 519.79,460.38 286.52,69.76 594.48,-52.21 849.38,-106.82 -146.3,309.48 -1404.98,481.95 -1369.17,-353.56zm17214.26 351.1c379.45,67.53 832.16,291.66 1167.07,-67.71 83.7,-89.85 123.75,-227.79 203.55,-305.92 40.74,867.45 -1157.21,688.47 -1370.62,373.63zm-696.82 -516.05c544.32,482.86 1043.84,2210.2 152.87,2427.91 -236.23,57.75 -426.48,-18.6 -532.29,-143.41 -334.35,-394.38 187.52,-934.02 445.21,-608.43 -415.42,-43.24 -419.33,415.88 -178.51,481.83 295.97,81.04 425.34,-261.86 422.15,-523.7 -3.63,-299.92 -26.91,-595.47 -94.28,-879.43 -56.36,-237.58 -197.79,-534.22 -215.15,-754.77zm-14518.83 1656.91c618.01,-422.65 847.48,995.86 -76.2,768.57 -202.65,-49.86 -333.38,-181.03 -408.78,-335.14 -306.17,-625.86 213.85,-1765.49 556.66,-2089.02 -68.85,502.6 -330.66,791.95 -312.18,1632.85 16.99,773.91 741.2,602.57 557.65,169.11 -26.01,-61.38 -65.26,-107.08 -129,-124.98 -93.96,-26.37 -124.31,21.24 -188.15,-21.39zm15773.05 -1562.87c56.73,-246.1 385.93,-288.55 502.74,-100.16 223,359.57 -329.1,695.79 -1046.35,366.6 -204.79,-93.99 -439.16,-230.46 -508.17,-365.46 238.37,74.5 1438.55,652.75 1413.13,57.13 -194.66,-88.72 -202.1,-22.85 -361.35,41.89zm-17313.25 -39.23c-45.01,581.8 1221.33,0.71 1411.18,-58.65 -131.26,236.96 -826,574.27 -1259.05,492.5 -209.79,-39.64 -440.81,-227.41 -301.12,-474.04 120.01,-211.85 465.61,-166.38 506.99,81.48 -143,-66.19 -192.2,-129.88 -358,-41.29zm837.44 -428.56c104.47,112.35 122.45,107.52 99.85,300.65 -118.55,55.84 -310.26,150.24 -371.36,-36.18 -63.65,-194.19 86.55,-273.64 271.51,-264.47zm17242.47 323.41l-165.64 0.91c-248.48,-348.79 415.97,-383.36 165.64,-0.91zm-1346.01 -77.43c-78.78,-266.58 298.14,-339.62 377.75,-104.42 81.41,240.6 -318.42,305.29 -377.75,104.42zm-16936.99 -141.74c22.57,83.35 11.69,135.03 -13.85,195.15 -390.81,130.93 -297.83,-405.86 13.85,-195.15zm16449.43 -111.13c687.02,-686.54 1717.41,-585.08 1577.65,-34.95 -59.21,233.12 -441.02,229.49 -515.98,-32.79 51.46,22.39 145.27,77.44 217.81,78.84 278.61,5.4 216.83,-540.72 -836.16,-172.91 -126.08,44.03 -322.66,159.61 -443.32,161.81zm-15884.65 -61.03c-102.83,245.7 -441.89,278.25 -511.83,48.05 -78.31,-257.67 115.45,-431.06 349.51,-458.63 470.26,-55.34 1063.9,246.98 1226.97,473.05 -161.27,-17.55 -1182.17,-504.98 -1382.5,-192.61 -46.38,72.31 -43.43,176.08 54.28,201.78 104.94,27.57 167.69,-38.12 263.57,-71.64zm-798.74 -96.68c20.36,-786.53 1039.03,-693.16 1318.39,-380.93 -295.88,-10.96 -947.9,-291.4 -1216.58,234.5 -36.8,72.04 -39.41,97.94 -101.81,146.43zm17218.26 -371.47c4.4,-5.92 11.56,-21.65 14.22,-17.08 0.13,0.24 16.22,-38.88 146.24,-98.38 209.41,-95.83 442.51,-159.47 680.57,-114.85 286.54,53.71 490.19,292.63 489.75,606.2l-104.31 -152.14c-28.09,-49.63 -61.98,-90.62 -99.7,-127.62 -73.57,-72.13 -159.32,-134.6 -291.11,-171.42 -318.07,-88.92 -546.76,46.29 -835.66,75.29zm-897.06 -865.34c226.03,-37.44 175.16,-11.78 354.69,-89.39 8.28,444.74 -95.05,951.57 -246.52,1348.7 -46.69,-277.68 50.9,-370.35 -46.35,-604.12l97.65 -48.9 -92.63 -121.67c-18.66,4.07 71.24,-29.13 89.13,-65.43 -36.58,-43.21 -85.69,-104.62 -119.88,-160.9l152.25 -74.42c-88.45,-72.51 -156.16,-80.65 -188.34,-183.87zm-14285.63 203.04l136.19 45.64 -99.39 169.52c17.67,48.43 -20.9,-9.14 24.24,24.81l68.45 46.24c-74.93,48.4 -41.6,22.26 -84.7,91.52 38.23,108.23 86.62,-81.91 47.5,296.73 -13.61,131.64 6.42,269.54 -11.13,384.04 -115.7,-431 -273.9,-790.4 -244.63,-1348.47 196.79,72.87 95.33,67.54 366.46,75.04 -34.38,77.52 -140.18,155.25 -202.99,214.93zm14537.58 -840.3c121.8,271.36 -128.9,323.69 -230.9,216.72 -104.75,-109.9 3.1,-290.96 230.9,-216.72zm-14598.25 248.48c-90.4,-161.73 -65.85,-278.51 167,-270.13 69.01,67.3 127.17,92.91 76.36,203.24 -63.52,94.25 -123.26,85.49 -243.36,66.89zm-763.03 1068.46c-515.03,-203.76 -863.54,-1126.41 -515.49,-1338.68 -11.81,489.57 -58.01,520.69 318.29,1056.9 69.32,98.79 144.46,181.17 197.2,281.78zm16676.76 -1320.89c136.59,295 132.06,492.26 -30.82,801.24 -97.81,185.54 -343.93,472.01 -526.83,525.63 109.62,-242.94 563.01,-637.9 545.09,-1122.08 -1.4,-37.53 -12.31,-92.73 -12.4,-107.87 -0.06,-7.56 -19.13,-43.89 24.96,-96.92zm-1352.9 398.13c-342.1,232.18 -711.69,-329.31 -415.6,-642.83 442.76,-468.79 1384.08,55.2 887.57,1383.21 -104.11,278.45 -325.77,748.18 -512.14,872.49 82.37,-515.14 303.06,-733.21 310.84,-1583.05 2.48,-269.98 -91.88,-594.66 -411.63,-535.86 -143.19,26.31 -193.63,155.43 -155.84,303.38 61.6,241.45 179.59,147.58 296.8,202.66zm-14484.23 1616.1c-355.27,-264.09 -865.74,-1493.78 -534.58,-2094.3 164.61,-298.52 639.52,-505.57 921.26,-151.94 317.27,398.19 -204.92,904.04 -454.51,595.1 195.87,37.32 261.68,9.84 317.11,-148.72 137.87,-394.17 -538.15,-570.37 -565.55,188.59 -24.4,675.7 249.65,1177.16 316.27,1611.27zm14961.16 -2657.26c357.81,113.62 525.62,576.84 499.95,1047.4 -11.25,206.28 -61.54,437.79 -135.1,613.32 -36.86,87.92 -86.68,178.74 -128.63,250.76 -22.91,39.38 -59.24,94.25 -81.75,122.84 -39.12,49.64 -65.25,59.19 -85.68,89.36 -0.44,-83.38 109.37,-372.61 137.64,-489.04 193.98,-798.89 116.07,-1060.43 -206.43,-1634.64zm-15536.45 2134.49c-547.94,-518.39 -654.9,-1901.84 57.01,-2131.83 -74.09,169.17 -173.73,244.03 -240.32,446.86 -59.95,182.73 -61.84,388.43 -51.15,597.7 32.49,636.67 161.08,704 234.46,1087.27zm1015.14 -2467.81c-89.38,-270.25 149.14,-311.03 245.34,-206.64 110.46,119.86 -19.22,307.39 -245.34,206.64zm13379.44 -227.79c184.27,-119.45 287.81,196.14 135.04,259.69 -100.66,41.84 -187.16,-9.02 -210.96,-79.95 -34.97,-104.07 21.79,-144.62 75.92,-179.74zm-879.01 -649.16c-55,-237.43 6.23,27.16 -176.37,-227.35 -78.37,-109.25 -151.31,-126.95 -229.62,-215.02 266.51,25.7 1067.9,606.82 1146.98,764.24l-91.08 43.77c-158.45,74.39 -116.47,104.74 -216.61,152.99l3.91 -272.29 -144.47 50.19 -32.89 -173.12 -76.26 -18.81c-45.36,-9.41 -29.73,-9.03 -50.44,-163.11l-133.15 58.51zm-12174.61 321.87c157.77,-240.54 846.86,-710.03 1154.95,-791.31 -43.18,47.03 -75.24,59.39 -125.86,103.07 -85.88,74.07 -268.1,256.33 -307.1,356.88 -81.91,-28.95 -13.55,-31.44 -116.16,-33.66l-21.49 141.77 -101.81 -0.79 -26.41 163.98c-113.22,22.03 -38.07,-14.97 -155.19,-4.98l-0.47 231.01 -300.46 -165.97zm14053.44 640.1c-55.12,-531.82 -284.16,-723.42 -561.71,-964.78 -343.99,-299.16 -819.83,-478.93 -922.32,-594.98 818.18,18.95 1879.85,992.32 1484.03,1559.76zm-1106.06 -422.48c-43.19,79.05 -91.67,80.66 -86.65,202.89 10.91,265.03 345.48,344.54 468.15,171.04 397.65,-562.34 -1501.08,-1389.74 -1602.3,-1510.8 785.11,48.75 1642.13,579.34 1890.83,996.74 214.49,360.04 -0.04,851.81 -390.12,868.63 -502.1,21.68 -700.48,-666.91 -279.91,-728.5zm-13040.48 -10.6c406.58,-66.1 404.54,690.37 -143.69,724.53 -511.86,31.88 -630.13,-494.54 -486.44,-820.37 192.8,-437.09 1155.67,-996.5 1862.71,-1034.5 -45.39,63.69 -103.51,87.19 -174.04,126.39 -64.82,36.03 -116.56,63.52 -184.36,98.7 -122.09,63.34 -219.06,124.81 -339.47,199.78 -238.37,148.4 -1288.81,845.6 -791.52,1150.62 136.62,83.79 303.38,-1.41 364.82,-115.99 105.96,-197.59 5.46,-240.16 -108.01,-329.16zm-1052.27 394.38c-133.37,-142.48 -39.43,-485.85 36.12,-631.2 234.89,-451.95 915.99,-850.75 1485.48,-916.11 -145.64,179.33 -1389.54,561.29 -1521.6,1547.31zm14849.24 -1523.05c231.48,86.63 506.77,257.94 493.01,546.99 -117.03,-98.53 -157.58,-291.9 -560.07,-433.9l-636.67 -139.58c-29.26,-3.48 -89.5,-8.38 -113.65,-14.15l-85.22 -34.07c389.75,-50.07 550.33,-57.16 902.6,74.71zm-14994.88 533.42c69.93,-653.54 1189.76,-712.96 1386.56,-585.28 -306.67,53.76 -536.73,68.09 -813.48,174.12 -172.73,66.18 -351.33,152.32 -458.6,283.04l-114.48 128.12zm13360.56 -1095.3c-198.23,-110.66 -34.82,-461.15 219.3,-310.76 176.8,104.62 37.42,454.85 -219.3,310.76zm-11198.97 -1.32c-117.28,24.88 -212.92,49.02 -296.93,-52.56 -63.09,-76.26 -43.84,-165 23.46,-227.41 170.64,-158.15 438.42,-2.31 273.47,279.97zm11761.76 -205.52c-178.84,-711.67 867.51,-398.19 439.2,153.58 -179,230.6 -708.35,542.95 -1203.19,465.1 131.1,-76.26 386.8,-133.24 701.34,-317.76 115.82,-67.94 582.05,-351.72 322.54,-554.02 -214.59,-62.15 -198.13,135.35 -259.89,253.1zm-11578.24 620.73c-536.63,49.96 -1022.29,-230.54 -1237.32,-494.84 -145.92,-179.33 -83.36,-489.89 136.1,-538.55 288.53,-63.99 421.27,210.36 302.91,412.66 -32.92,-72.1 -35.37,-180.15 -87.79,-232.42 -66.1,-65.86 -186.38,-60.09 -228.82,31.9 -173.02,375.08 1044.18,764.18 1114.92,821.25zm9390.89 -1287.96c153.08,85.29 754.63,808.42 804.33,1080.39 -41.24,-58.77 -192.61,-185.46 -251.52,-237.2 -277.52,-243.81 -243.54,-80.68 -164.99,-241.44 -308.49,-75.77 -83.3,-71.96 -253.93,-133.31 -35.37,-12.71 -55.74,-9.43 -92.53,-14.41l31.62 -148.95 -261.28 -4.19c43.93,-92.88 60.2,-81.8 110.27,-150.53 50.97,-69.97 40.46,-93.96 78.03,-150.36zm-8763.76 1045.58c88.6,-303.14 624.49,-928.59 809.07,-1064.45 74.15,257.03 104.19,178.02 187.52,329.93l-282.67 -4.05c21.43,81.25 32.74,52.74 57.63,143.44 -197.63,17.5 -177.54,-9.19 -209.94,132.72l-150.07 4.87c3.41,6.97 10.2,14.73 12.86,19.57 84.36,152.08 44.74,21.3 -152.43,224.07 -16.43,16.87 -217.78,185.54 -271.97,213.9zm11676.26 -78.66c-125.37,162.69 -478.69,384.21 -772.61,360.89 27.53,-8.44 260.07,-146.93 309.14,-177.84 608.03,-382.78 443.54,-606.2 359.59,-998.82 253.77,125.98 262.92,609.33 103.88,815.77zm-13022.46 366.43c-300.77,-8.44 -640.14,-192.26 -779.8,-367.46 -170.73,-214.14 -172.77,-700.74 79.11,-809.67 -20.74,169.25 -99.85,226 -72.67,434.51 50.19,384.92 439.97,548.61 773.36,742.62zm12715.36 -1223.13c-188.42,88.13 -336.2,-58.13 -231.11,-195.89 102.33,-134.15 323.84,-77.26 231.11,195.89zm-13145.94 -228.23c172.71,-111.89 298.39,135.27 177.8,223.45 -56.74,41.49 -182.66,47.35 -231.12,-18.31 -73.38,-99.49 -5.89,-166.76 53.32,-205.14zm10331.65 38.14c6.64,548.23 -954.77,221.47 -552.28,-146.57 79.52,114.79 69.32,236.17 234.99,279.35 251.01,65.45 247.76,-80.39 317.29,-132.78zm-7532.76 28.01c79.76,71.37 166.1,181.03 340.23,102.57 62.22,-28.03 99.43,-64.95 133.47,-122.08l80.13 -148.22c330.07,403.73 -540.6,659.29 -553.83,167.73zm-2032.5 325.8c-217.6,150.09 -519.12,-89.51 -391.58,-329.58 223.64,-420.92 1111.67,25.67 1079.8,1103.8 -54.4,-63.34 -172.36,-420.89 -335.18,-676.84 -90.9,-142.83 -323.04,-494.58 -579.26,-369.42 -181.7,207.23 149.8,229.2 226.22,272.04zm10908.24 741.29c-45.61,-477.76 222.37,-983.82 494.78,-1161.6 211.42,-138 510.86,-106.7 586.41,115.58 92.36,271.76 -194.16,392.21 -447.22,297.93 145.09,-82.62 299.63,0.17 313.45,-216.45 -205.16,-294.74 -519.7,156.01 -601.88,280.9 -259.14,393.74 -259.92,543.13 -345.54,683.64zm-1716.76 -1313.98c280.78,-63.34 340.74,179.48 176.31,240.56 -135.23,50.22 -309.27,-17.9 -176.31,-240.56zm-6788.24 231.78c-231.02,75.94 -376.63,-88.54 -245.78,-208.99 106,-97.59 343.93,-51.82 245.78,208.99zm8447.4 388.13c9.14,-803.73 986.42,-1082.49 1258.89,-642.47 -348.85,-45.38 -500.08,-200.02 -817.96,69.93 -280.29,238.02 -309.95,450.43 -440.93,572.54zm-1755.7 -695.44c177.02,-575.47 749.21,-304.9 1097.01,179.36 173.11,241.03 598.36,906.07 543.33,1302.35 -116.97,-157.86 -210.31,-306.49 -310.97,-480.51 -157.05,-271.51 -480.03,-669.84 -714.7,-862.56 -209.6,-172.16 -281.28,-190.41 -614.67,-138.64zm-8264.24 1537.76c10.67,-479.64 325.21,-1073.13 566.58,-1364.58 124.91,-150.83 312.18,-363.94 526.46,-444.57 304.78,-114.7 511.77,51.22 578.18,297.64 -352.11,-89.89 -393.9,-56.1 -632.4,121.88 -264.38,197.29 -546.58,613.23 -727.69,899.77 -96.94,153.37 -201.54,372.81 -311.13,489.86zm-1376.67 -1456.17c137.31,-223.98 587.48,-294.53 843.33,-126.45 177.91,116.87 405.9,418.03 416.35,711.5 -82.16,-76.32 -148.93,-177.95 -217.2,-279.79 -377.19,-562.7 -668.66,-389.55 -1042.48,-305.26zm1377.6 665.04c43.56,-556.05 596.53,-1453.79 1276.01,-1389.02 -39.09,75.59 -125.43,82.51 -221.87,137.76 -534.25,306.28 -846.61,1006.71 -1054.14,1251.26zm9907.8 -27.4c-135.59,-161.4 -377.19,-614.93 -546.45,-789.28 -252.14,-259.73 -482.97,-395.52 -726.08,-586.25 613.73,-93.7 1313.43,878.29 1272.53,1375.53zm58.38 -210.56c-10.73,-22.97 -76.11,-957.48 -499.4,-1248.41 -75.52,-51.92 -86.09,-31.12 -149.46,-97.36 282.98,-20.6 505.08,264.8 592.96,472.08 72.27,170.48 167.38,714.05 55.9,873.69zm-10018.66 -16.38c-123.11,-204.73 -94.99,-1022.29 438.7,-1282.66 200.88,-98 181.29,-22.85 186.56,-19.69 -236.23,171.22 -321.95,200.14 -456.27,532.29 -143.07,353.86 -119.39,606.81 -168.99,770.06zm8423.86 -3337.11c100.63,-46.35 170.11,-105.09 312.4,-102.25 204.27,452.06 -168.86,1228.57 -495.71,1380.51 59.68,-201.89 173.64,-293.12 209.17,-582.82 31.19,-254.22 -20.34,-453.21 -25.86,-695.44zm-6648.14 1268.33c-148.99,-47.78 -373.04,-364.41 -451.29,-547.49 -122.08,-285.74 -129.61,-526.95 -45.45,-845.51l312.68 116.79c-12.68,252.4 -38.35,460.12 -19.34,723.48 21.61,299.51 118.67,346.5 203.4,552.73zm5071.95 -1251.37c91.39,209.92 -102.02,290.84 -102.74,289.52 -2.57,-4.63 -11.13,7.27 -16.21,11.46 188.92,290.22 775.49,79.8 702.55,-361.1 -105.03,-634.71 -1190.7,-668.81 -1474.33,216.63 -114.61,357.81 41.95,760.28 214.13,1002.37 473.67,665.88 2078.66,630.58 2663.31,-365.17 267.48,-455.55 140.5,-576.41 64.42,-1050.04 232.85,-66.18 1002.49,-442.6 1456.41,-597.76 -19.97,77.43 -1071.68,1652.11 -1250.12,1953.11 -197.76,333.65 -1028.66,1784.39 -1124.14,2057.77 -202.28,-54.17 -445.46,-173.48 -671.24,-244.58 -1236.95,-389.66 -2658.66,-468.91 -3929.34,-177.31 -452.83,103.92 -1292.84,412.25 -1349.89,421.8 -191.77,-480.25 -1404.38,-2532.22 -1740.53,-3037.63 -104.97,-157.86 -603.4,-861.51 -637.63,-969.56 252.75,50.4 530.03,192.28 755.13,288.09 213.53,90.88 506.96,241.88 692.81,308.36 -44.11,469.41 -193.2,557.68 72.61,1026.65 530.68,936.28 2003.48,1088.13 2574.65,473.17 468.61,-504.54 387.3,-1338.83 -205.32,-1645.31 -347.43,-179.69 -757.15,-34.9 -871.2,255.8 -151.56,386.29 211.06,669.39 572.16,470.2 -48.8,-98.36 -225.57,-238.9 -28.15,-333.27 420.1,-66.56 128.04,830.86 -572.78,457.75 -357.29,-190.23 -328.92,-787.93 -30.5,-1047.98 297.7,-259.46 822.86,-345.39 1264.16,-143.5 414.09,189.41 572.88,474.21 751.01,800.85 86.4,-43.65 34.25,8.76 91.17,-81.79l118.21 -322.52c-170.63,-233.88 -722.51,-497.62 -517.87,-1171.79 74.71,-246.16 556.44,-1014.5 713.18,-1087.98 144.65,142.36 581.83,824.35 659.7,1065.83 75.4,233.74 33.76,543.88 -76.45,727.76 -62.83,104.82 -336.2,376.12 -432.83,432.49 9.67,127.48 86.3,343.46 164.55,398.69 203.77,-313.02 284.53,-591.47 809.13,-815.48 1203.03,-513.74 1984.58,795.73 1311.01,1238.92 -450.48,296.41 -1107.86,-14.91 -782.28,-474.86l163.25 30.41zm-13653.77 19401.19l23412.92 0 0 -22969.87 -23412.92 0 0 22969.87z"/>
   <g>
    <path class="fil1" d="M8639.04 13972.84c-158.17,-285.48 -169.02,-775.72 -1108.11,-747.39 -303.56,9.17 -540.26,108.93 -679.76,261.19 -790.04,862.42 1574.77,1405.51 2123.86,2230.1 287.07,431.09 205.26,1005.41 -48.08,1418.22 -479.34,780.97 -2092.99,802.18 -2886.62,438.88 -296.9,-135.91 -327.34,-235.02 -285.4,-607.78 28.21,-250.7 61.17,-566.3 227.58,-697.76l79.55 318.56c30.88,120.73 57.04,202.5 118.98,307.74 376.86,640.04 1287.24,757.06 1788.62,453.03 425.24,-257.88 507.55,-726.17 72.45,-1046.98 -535.39,-394.73 -1681.6,-1053.5 -1963.52,-1417.96 -615.63,-795.88 39.18,-1867.71 953.5,-1945.76 522.77,-44.65 1187.78,21.3 1722.55,40.49 28,106.41 -64.05,920.86 -115.6,995.42zm4576.74 3196.63c-20.65,-162.48 6.82,-603.44 6.82,-807.3 0,-274.29 -3.66,-550.89 0,-825.52l-2290.19 5.77 24.62 1522.46c-19.97,182.94 -2.02,340.62 109.22,446.09 99.11,93.99 279.91,90 395.26,165.88 -144.93,87.08 -1298.64,58.45 -1594.36,52.1l-373.97 -18.75c-31.28,-3.73 -37.14,-3.34 -67.89,-11.99 -84.26,-23.7 -27.81,-3.19 -62.93,-26.13 505.22,-236.96 450.1,-59.92 482.72,-929.01 33.79,-899.88 12.37,-1902.78 9.86,-2811.95 -2.82,-1002.22 -245.97,-682.93 -527.89,-886.73 159.78,-66.15 1931.68,-64.39 2120.14,-9.75 -128.07,190.73 -527.39,-123.46 -525.16,821.98 1.05,446.59 3.94,893.17 0.65,1339.79l2321.37 8.94c1.95,-296.35 36.21,-1653.14 -75.02,-1888.52 -104.41,-220.9 -260.44,-144.11 -413.25,-270.03 677.44,-50.66 1369.67,-24.38 2052.9,-12.54 -31.4,31.99 -2.54,13.39 -49.66,36.47 -345.91,169.46 -425.93,-62.29 -457.55,885.3 -14.76,442.95 -60.42,3158.51 52.46,3425.38 103.51,244.7 264.68,172.83 442.23,295.44 -146.14,76.88 -825.13,31.65 -1045.02,35.28 -164.09,2.72 -329.64,20.86 -498.04,18.93l-497.19 -54.21c87.76,-68.52 504.39,-115.58 459.87,-507.38zm-3441.26 -6985.66c-1268.11,174.94 -2178.67,535.56 -3096.68,1279.49 -379.64,307.63 -835.92,841.88 -1096.67,1244.43 -567.35,875.98 -866.7,2066.47 -756.27,3133.99 218.37,2110.71 1740.09,3728.25 3593.53,4396.15 1370.97,494.08 3201.25,394.96 4481.72,-314.57 685.38,-379.76 1056.12,-674.97 1524.74,-1164.62 827.11,-864.23 1492.8,-2254.36 1330.1,-3893.98 -218.31,-2200.27 -1736.16,-3679.61 -3598.86,-4384.75 -564.78,-213.81 -1724.35,-386.82 -2381.61,-296.14z"/>
    <path class="fil1" d="M9740.79 7480.88c28.74,251.66 288.03,454.9 595.07,420.45 261.37,-29.36 486.72,-269.19 445.95,-565.19 -84.32,-612.06 -1118.86,-536.94 -1041.02,144.74z"/>
   </g>
  </g>
 </g>
</svg>
